<svg version="1.1" viewBox="0.0 0.0 960.0 720.0" fill="none" stroke="none" stroke-linecap="square" stroke-miterlimit="10" xmlns:xlink="http://www.w3.org/1999/xlink" xmlns="http://www.w3.org/2000/svg"><clipPath id="p.0"><path d="m0 0l960.0 0l0 720.0l-960.0 0l0 -720.0z" clip-rule="nonzero"/></clipPath><g clip-path="url(#p.0)"><path fill="#000000" fill-opacity="0.0" d="m0 0l960.0 0l0 720.0l-960.0 0z" fill-rule="evenodd"/><path fill="#38761d" d="m246.65617 378.52756l0 0c0 -116.927826 95.43031 -211.71654 213.14961 -211.71654l0 0c56.53076 0 110.746216 22.305786 150.71954 62.010345c39.973267 39.704544 62.430054 93.555466 62.430054 149.70619l0 0c0 116.927826 -95.43036 211.71652 -213.1496 211.71652l0 0c-117.7193 0 -213.14961 -94.7887 -213.14961 -211.71652z" fill-rule="evenodd"/><path stroke="#000000" stroke-width="1.0" stroke-linejoin="round" stroke-linecap="butt" d="m246.65617 378.52756l0 0c0 -116.927826 95.43031 -211.71654 213.14961 -211.71654l0 0c56.53076 0 110.746216 22.305786 150.71954 62.010345c39.973267 39.704544 62.430054 93.555466 62.430054 149.70619l0 0c0 116.927826 -95.43036 211.71652 -213.1496 211.71652l0 0c-117.7193 0 -213.14961 -94.7887 -213.14961 -211.71652z" fill-rule="evenodd"/></g></svg>